<svg width="148" height="148" viewBox="0 0 148 148" fill="none" xmlns="http://www.w3.org/2000/svg">
<g clip-path="url(#clip0_452_3010)">
<path d="M74 0C80.539 0 85.84 5.30095 85.84 11.84V44.4655L109.107 21.1989C113.73 16.5752 121.227 16.5751 125.851 21.1989C130.475 25.8227 130.475 33.3196 125.851 37.9433L100.648 63.1467H136.16C142.699 63.1467 148 68.4476 148 74.9867C148 81.5257 142.699 86.8267 136.16 86.8267H103.571L125.851 109.107C130.474 113.73 130.475 121.227 125.851 125.851C121.227 130.475 113.73 130.474 109.107 125.851L85.84 102.584V136.16C85.84 142.699 80.539 148 74 148C67.461 148 62.16 142.699 62.16 136.16V101.634L37.9433 125.851C33.3196 130.475 25.8227 130.475 21.1989 125.851C16.5751 121.227 16.5752 113.73 21.1989 109.107L43.4789 86.8267H11.84C5.30095 86.8267 0 81.5257 0 74.9867C0 68.4476 5.30095 63.1467 11.84 63.1467H46.4022L21.1989 37.9433C16.5751 33.3195 16.5751 25.8227 21.1989 21.1989C25.8227 16.5751 33.3195 16.5751 37.9433 21.1989L62.16 45.4156V11.84C62.16 5.30095 67.461 0 74 0Z" fill="url(#paint0_linear_452_3010)"/>
</g>
<defs>
<linearGradient id="paint0_linear_452_3010" x1="74" y1="0" x2="74" y2="148" gradientUnits="userSpaceOnUse">
<stop offset="0.3" stop-color="#B2FF18"/>
<stop offset="1" stop-color="#FFFEEC"/>
</linearGradient>
<clipPath id="clip0_452_3010">
<rect width="148" height="148" fill="white"/>
</clipPath>
</defs>
</svg>
