<svg width="268" height="268" viewBox="0 0 268 268" fill="none" xmlns="http://www.w3.org/2000/svg">
<g clip-path="url(#clip0_483_1804)">
<path d="M134 0C145.841 0 155.44 9.59902 155.44 21.44V80.5186L197.571 38.3872C205.944 30.0145 219.52 30.0144 227.892 38.3872C236.265 46.76 236.265 60.3354 227.892 68.7081L182.254 114.347H246.56C258.401 114.347 268 123.946 268 135.787C268 147.628 258.401 157.227 246.56 157.227H187.548L227.892 197.571C236.265 205.944 236.265 219.52 227.892 227.892C219.52 236.265 205.944 236.265 197.571 227.892L155.44 185.761V246.56C155.44 258.401 145.841 268 134 268C122.159 268 112.56 258.401 112.56 246.56V184.041L68.7081 227.892C60.3354 236.265 46.76 236.265 38.3872 227.892C30.0144 219.52 30.0145 205.944 38.3872 197.571L78.732 157.227H21.44C9.59902 157.227 0 147.628 0 135.787C0 123.946 9.59902 114.347 21.44 114.347H84.0257L38.3872 68.7081C30.0143 60.3353 30.0143 46.76 38.3872 38.3872C46.76 30.0143 60.3353 30.0143 68.7081 38.3872L112.56 82.239V21.44C112.56 9.59902 122.159 0 134 0Z" fill="url(#paint0_linear_483_1804)"/>
</g>
<defs>
<linearGradient id="paint0_linear_483_1804" x1="134" y1="0" x2="134" y2="268" gradientUnits="userSpaceOnUse">
<stop offset="0.3" stop-color="#B2FF18"/>
<stop offset="1" stop-color="#FFFEEC"/>
</linearGradient>
<clipPath id="clip0_483_1804">
<rect width="268" height="268" fill="white"/>
</clipPath>
</defs>
</svg>
