<svg width="268" height="268" viewBox="0 0 268 268" fill="none" xmlns="http://www.w3.org/2000/svg">
<path fill-rule="evenodd" clip-rule="evenodd" d="M133.461 7.24316C178.145 7.24316 214.369 25.3552 214.369 47.6974C214.369 50.1615 213.927 52.5735 213.083 54.916C215.426 54.0719 217.838 53.6307 220.303 53.6307C242.645 53.6307 260.757 89.8547 260.757 134.539C260.757 179.224 242.645 215.448 220.303 215.448C217.978 215.448 215.7 215.054 213.483 214.302C214.066 216.26 214.369 218.263 214.369 220.302C214.369 242.645 178.145 260.757 133.461 260.757C88.7761 260.757 52.5521 242.645 52.5521 220.302C52.5521 218.391 52.8167 216.51 53.3296 214.669C51.4889 215.182 49.6088 215.448 47.6976 215.448C25.3553 215.448 7.24329 179.224 7.24329 134.539C7.24329 89.8547 25.3553 53.6307 47.6976 53.6307C49.7363 53.6307 51.7395 53.9335 53.6972 54.5157C52.9447 52.299 52.5521 50.0213 52.5521 47.6974C52.5521 25.3552 88.7761 7.24316 133.461 7.24316ZM192.813 75.1863C178.035 83.1584 156.914 88.1517 133.461 88.1517C110.79 88.1517 90.2993 83.4865 75.61 75.9754C83.3368 90.7108 88.1519 111.5 88.1519 134.539C88.1519 156.829 83.6439 177.012 76.3537 191.645C90.987 184.355 111.171 179.848 133.461 179.848C156.499 179.848 177.288 184.662 192.023 192.389C184.513 177.7 179.848 157.209 179.848 134.539C179.848 111.086 184.84 89.9639 192.813 75.1863Z" fill="url(#paint0_linear_483_1810)"/>
<defs>
<linearGradient id="paint0_linear_483_1810" x1="134" y1="7.24316" x2="134" y2="260.757" gradientUnits="userSpaceOnUse">
<stop offset="0.3" stop-color="#B2FF18"/>
<stop offset="1" stop-color="#FFFEEC"/>
</linearGradient>
</defs>
</svg>
