<svg width="148" height="148" viewBox="0 0 148 148" fill="none" xmlns="http://www.w3.org/2000/svg">
<path fill-rule="evenodd" clip-rule="evenodd" d="M106.607 7C125.602 7 141 22.3984 141 41.3933C141 56.553 131.192 69.4213 117.575 74C131.192 78.5787 141 91.447 141 106.607C141 125.602 125.602 141 106.607 141C91.447 141 78.5787 131.192 74 117.575C69.4213 131.192 56.553 141 41.3933 141C22.3984 141 7 125.602 7 106.607C7 91.4473 16.8077 78.5789 30.4238 74C16.8077 69.4211 7 56.5527 7 41.3933C7 22.3984 22.3984 7 41.3933 7C56.5527 7 69.4211 16.8077 74 30.4238C78.5789 16.8077 91.4473 7 106.607 7ZM74 52.362C70.5797 62.5336 62.5336 70.5797 52.362 74C62.5334 77.4202 70.5795 85.4659 74 95.6372C77.4204 85.4661 85.4661 77.4204 95.6372 74C85.4659 70.5795 77.4202 62.5334 74 52.362Z" fill="url(#paint0_linear_452_3018)"/>
<defs>
<linearGradient id="paint0_linear_452_3018" x1="27.1" y1="100.8" x2="119.56" y2="74" gradientUnits="userSpaceOnUse">
<stop offset="0.3" stop-color="#E33C54"/>
<stop offset="1" stop-color="#181818"/>
</linearGradient>
</defs>
</svg>
