<svg width="148" height="148" viewBox="0 0 148 148" fill="none" xmlns="http://www.w3.org/2000/svg">
<path d="M135.486 9C136.636 9 137.778 9.02839 138.913 9.08578C138.971 10.2211 139 11.3639 139 12.5135C139 40.1434 122.214 63.8525 98.2841 74C122.214 84.1475 139 107.857 139 135.486C139 136.636 138.972 137.778 138.914 138.913C137.779 138.971 136.636 139 135.486 139C107.857 139 84.1475 122.214 74 98.2841C63.8525 122.214 40.1434 139 12.5135 139C11.3639 139 10.2211 138.971 9.08578 138.913C9.02839 137.778 9 136.636 9 135.486C9 107.857 25.7854 84.1477 49.7151 74C25.7854 63.8523 9 40.1431 9 12.5135C9 11.3639 9.02921 10.2211 9.08664 9.08578C10.2217 9.02839 11.3642 9 12.5135 9C40.1431 9 63.8523 25.7854 74 49.7151C84.1477 25.7854 107.857 9 135.486 9Z" fill="url(#paint0_linear_452_3006)"/>
<defs>
<linearGradient id="paint0_linear_452_3006" x1="74" y1="9" x2="74" y2="139" gradientUnits="userSpaceOnUse">
<stop offset="0.3" stop-color="#E33C54"/>
<stop offset="1" stop-color="#B2FF18"/>
</linearGradient>
</defs>
</svg>
