<svg width="268" height="268" viewBox="0 0 268 268" fill="none" xmlns="http://www.w3.org/2000/svg">
<path d="M245.34 16.2974C247.422 16.2974 249.49 16.3488 251.546 16.4527C251.65 18.5086 251.703 20.578 251.703 22.6597C251.703 72.6922 221.307 115.625 177.974 134C221.307 152.375 251.703 195.308 251.703 245.34C251.703 247.422 251.651 249.491 251.547 251.546C249.492 251.65 247.422 251.703 245.34 251.703C195.308 251.703 152.375 221.307 134 177.974C115.625 221.307 72.6922 251.703 22.6596 251.703C20.5779 251.703 18.5085 251.65 16.4526 251.546C16.3487 249.491 16.2973 247.422 16.2973 245.34C16.2973 195.308 46.6925 152.376 90.0246 134C46.6925 115.624 16.2973 72.6917 16.2973 22.6597C16.2973 20.578 16.3502 18.5086 16.4542 16.4527C18.5095 16.3488 20.5785 16.2974 22.6596 16.2974C72.6916 16.2974 115.624 46.6925 134 90.0247C152.376 46.6925 195.308 16.2974 245.34 16.2974Z" fill="url(#paint0_linear_483_1802)"/>
<defs>
<linearGradient id="paint0_linear_483_1802" x1="134" y1="16.2974" x2="134" y2="251.703" gradientUnits="userSpaceOnUse">
<stop offset="0.3" stop-color="#E33C54"/>
<stop offset="1" stop-color="#B2FF18"/>
</linearGradient>
</defs>
</svg>
