<svg width="268" height="268" viewBox="0 0 268 268" fill="none" xmlns="http://www.w3.org/2000/svg">
<g clip-path="url(#clip0_483_1812)">
<path d="M134 0C158.283 3.67486e-06 178.04 38.7554 178.651 87.0268L178.667 89.3327L180.973 89.3487C229.245 89.9604 268 109.717 268 134C268 158.669 228.004 178.667 178.667 178.667C178.269 178.667 177.871 178.661 177.474 178.658L177.475 178.667C177.475 228.004 157.477 268 132.808 268C108.14 267.999 88.1428 228.004 88.1426 178.667V178.658C39.354 178.34 3.70337e-06 158.47 0 134C0 109.331 39.9956 89.3329 89.3327 89.3327L89.3487 87.0268C89.9604 38.7554 109.717 0 134 0Z" fill="url(#paint0_linear_483_1812)"/>
</g>
<defs>
<linearGradient id="paint0_linear_483_1812" x1="40.2" y1="187.6" x2="225.12" y2="134" gradientUnits="userSpaceOnUse">
<stop offset="0.3" stop-color="#E33C54"/>
<stop offset="1" stop-color="#181818"/>
</linearGradient>
<clipPath id="clip0_483_1812">
<rect width="268" height="268" fill="white"/>
</clipPath>
</defs>
</svg>
