<svg width="148" height="148" viewBox="0 0 148 148" fill="none" xmlns="http://www.w3.org/2000/svg">
<path fill-rule="evenodd" clip-rule="evenodd" d="M73.7021 4C98.3787 4 118.383 14.0021 118.383 26.3404C118.383 27.7012 118.139 29.0332 117.673 30.3268C118.966 29.8607 120.299 29.617 121.66 29.617C133.998 29.617 144 49.6213 144 74.2979C144 98.9744 133.998 118.979 121.66 118.979C120.376 118.979 119.118 118.761 117.894 118.346C118.215 119.427 118.383 120.533 118.383 121.66C118.383 133.998 98.3787 144 73.7021 144C49.0256 144 29.0213 133.998 29.0213 121.66C29.0213 120.604 29.1674 119.565 29.4506 118.549C28.4342 118.832 27.3959 118.979 26.3404 118.979C14.0021 118.979 4 98.9744 4 74.2979C4 49.6213 14.0021 29.617 26.3404 29.617C27.4663 29.617 28.5725 29.7842 29.6537 30.1057C29.2381 28.8816 29.0213 27.6237 29.0213 26.3404C29.0213 14.0021 49.0256 4 73.7021 4ZM106.479 41.5209C98.3178 45.9233 86.6541 48.6809 73.7021 48.6809C61.1827 48.6809 49.8668 46.1045 41.7547 41.9566C46.0218 50.0941 48.6809 61.5749 48.6809 74.2979C48.6809 86.6068 46.1914 97.7529 42.1655 105.834C50.2465 101.808 61.393 99.3191 73.7021 99.3191C86.4247 99.3191 97.9054 101.978 106.043 106.245C101.895 98.1327 99.3191 86.817 99.3191 74.2979C99.3191 61.3458 102.076 49.6816 106.479 41.5209Z" fill="url(#paint0_linear_452_3022)"/>
<defs>
<linearGradient id="paint0_linear_452_3022" x1="74" y1="4" x2="74" y2="144" gradientUnits="userSpaceOnUse">
<stop offset="0.3" stop-color="#B2FF18"/>
<stop offset="1" stop-color="#FFFEEC"/>
</linearGradient>
</defs>
</svg>
