<svg width="268" height="268" viewBox="0 0 268 268" fill="none" xmlns="http://www.w3.org/2000/svg">
<path fill-rule="evenodd" clip-rule="evenodd" d="M193.044 12.6758C227.441 12.6758 255.324 40.5594 255.324 74.9556C255.324 102.407 237.564 125.709 212.907 134C237.564 142.291 255.324 165.593 255.324 193.045C255.324 227.441 227.441 255.324 193.044 255.324C165.593 255.324 142.291 237.564 134 212.907C125.709 237.564 102.407 255.324 74.9555 255.324C40.5593 255.324 12.6757 227.441 12.6757 193.045C12.6757 165.594 30.4355 142.292 55.0918 134C30.4355 125.709 12.6757 102.406 12.6757 74.9556C12.6757 40.5594 40.5593 12.6758 74.9555 12.6758C102.406 12.6758 125.708 30.4356 134 55.0919C142.292 30.4356 165.594 12.6758 193.044 12.6758ZM134 94.8177C127.806 113.237 113.237 127.807 94.8176 134C113.236 140.193 127.806 154.763 134 173.181C140.194 154.763 154.763 140.194 173.181 134C154.762 127.806 140.193 113.236 134 94.8177Z" fill="url(#paint0_linear_483_1808)"/>
<defs>
<linearGradient id="paint0_linear_483_1808" x1="49.073" y1="182.53" x2="216.501" y2="134" gradientUnits="userSpaceOnUse">
<stop offset="0.3" stop-color="#E33C54"/>
<stop offset="1" stop-color="#181818"/>
</linearGradient>
</defs>
</svg>
