<svg width="268" height="268" viewBox="0 0 268 268" fill="none" xmlns="http://www.w3.org/2000/svg">
<path d="M109.657 19.3253C120.266 0.224895 147.734 0.224889 158.343 19.3253L160.871 23.8781C167.158 35.1974 180.418 40.6897 192.867 37.1311L197.874 35.6998C218.882 29.695 238.305 49.1184 232.3 70.1257L230.869 75.133C227.31 87.5823 232.803 100.842 244.122 107.129L248.675 109.657C267.775 120.266 267.775 147.734 248.675 158.343L244.122 160.871C232.803 167.158 227.31 180.418 230.869 192.867L232.3 197.874C238.305 218.882 218.882 238.305 197.874 232.3L192.867 230.869C180.418 227.31 167.158 232.803 160.871 244.122L158.343 248.675C147.734 267.775 120.266 267.775 109.657 248.675L107.129 244.122C100.842 232.803 87.5823 227.31 75.133 230.869L70.1257 232.3C49.1184 238.305 29.695 218.882 35.6998 197.874L37.1311 192.867C40.6897 180.418 35.1974 167.158 23.8781 160.871L19.3253 158.343C0.224895 147.734 0.224889 120.266 19.3253 109.657L23.8781 107.129C35.1974 100.842 40.6897 87.5823 37.1311 75.133L35.6998 70.1257C29.695 49.1184 49.1184 29.695 70.1257 35.6998L75.133 37.1311C87.5823 40.6897 100.842 35.1974 107.129 23.8781L109.657 19.3253Z" fill="url(#paint0_linear_483_1814)"/>
<defs>
<linearGradient id="paint0_linear_483_1814" x1="134" y1="5" x2="134" y2="263" gradientUnits="userSpaceOnUse">
<stop offset="0.3" stop-color="#B2FF18"/>
<stop offset="1" stop-color="#FFFEEC"/>
</linearGradient>
</defs>
</svg>
