<svg width="148" height="148" viewBox="0 0 148 148" fill="none" xmlns="http://www.w3.org/2000/svg">
<path d="M60.9794 12.6624C66.6537 2.44587 81.3463 2.44587 87.0206 12.6624L88.3731 15.0976C91.7357 21.1521 98.8281 24.0898 105.487 22.1864L108.165 21.4208C119.402 18.209 129.791 28.5982 126.579 39.8347L125.814 42.513C123.91 49.1719 126.848 56.2643 132.902 59.6269L135.338 60.9794C145.554 66.6537 145.554 81.3463 135.338 87.0206L132.902 88.3731C126.848 91.7357 123.91 98.8281 125.814 105.487L126.579 108.165C129.791 119.402 119.402 129.791 108.165 126.579L105.487 125.814C98.8281 123.91 91.7357 126.848 88.3731 132.902L87.0206 135.338C81.3463 145.554 66.6537 145.554 60.9794 135.338L59.6269 132.902C56.2643 126.848 49.1719 123.91 42.513 125.814L39.8347 126.579C28.5982 129.791 18.209 119.402 21.4208 108.165L22.1864 105.487C24.0898 98.828 21.1521 91.7357 15.0976 88.3731L12.6624 87.0206C2.44587 81.3463 2.44587 66.6537 12.6624 60.9794L15.0976 59.6269C21.1521 56.2643 24.0898 49.1719 22.1864 42.513L21.4208 39.8347C18.209 28.5982 28.5982 18.209 39.8347 21.4208L42.513 22.1864C49.1719 24.0898 56.2643 21.1521 59.6269 15.0976L60.9794 12.6624Z" fill="url(#paint0_linear_465_2633)"/>
<defs>
<linearGradient id="paint0_linear_465_2633" x1="74" y1="5" x2="74" y2="143" gradientUnits="userSpaceOnUse">
<stop offset="0.3" stop-color="#B2FF18"/>
<stop offset="1" stop-color="#FFFEEC"/>
</linearGradient>
</defs>
</svg>
